HIERARCHY
ROOT joint_Root
{
	OFFSET 0.0 0.0 0.0
	CHANNELS 6 Xposition Yposition Zposition Zrotation Xrotation Yrotation 
	JOINT Hips
	{
		OFFSET -0.726466 93.3139 -2.00062
		CHANNELS 6 Xposition Yposition Zposition Zrotation Xrotation Yrotation 
		JOINT Spine
		{
			OFFSET 15.7357 0.0 0.0
			CHANNELS 6 Xposition Yposition Zposition Zrotation Xrotation Yrotation 
			JOINT Chest
			{
				OFFSET 8.98455 -0.406207 0.0
				CHANNELS 6 Xposition Yposition Zposition Zrotation Xrotation Yrotation 
				JOINT Neck
				{
					OFFSET 16.3773 0.0 0.0
					CHANNELS 6 Xposition Yposition Zposition Zrotation Xrotation Yrotation 
					JOINT Head
					{
						OFFSET 6.45672 0.0 0.0
						CHANNELS 6 Xposition Yposition Zposition Zrotation Xrotation Yrotation 
						End Site
						{
							OFFSET 0.0 0.0 0.0
						}
					}
				}
				JOINT Shoulder_L
				{
					OFFSET 12.9942 -0.242716 4.98039
					CHANNELS 6 Xposition Yposition Zposition Zrotation Xrotation Yrotation 
					JOINT UpperArm_L
					{
						OFFSET 5.34809 0.0 0.0
						CHANNELS 6 Xposition Yposition Zposition Zrotation Xrotation Yrotation 
						JOINT LowerArm_L
						{
							OFFSET 24.3286 1.87007e-05 0.0
							CHANNELS 6 Xposition Yposition Zposition Zrotation Xrotation Yrotation 
							JOINT Hand_L
							{
								OFFSET 22.2916 0.0 0.0
								CHANNELS 6 Xposition Yposition Zposition Zrotation Xrotation Yrotation 
								End Site
								{
									OFFSET 0.0 0.0 0.0
								}
							}
						}
					}
				}
				JOINT Shoulder_R
				{
					OFFSET 12.9945 -0.242716 -4.98039
					CHANNELS 6 Xposition Yposition Zposition Zrotation Xrotation Yrotation 
					JOINT UpperArm_R
					{
						OFFSET -5.34813 0.0 0.0
						CHANNELS 6 Xposition Yposition Zposition Zrotation Xrotation Yrotation 
						JOINT LowerArm_R
						{
							OFFSET -24.3289 0.000322201 0.0
							CHANNELS 6 Xposition Yposition Zposition Zrotation Xrotation Yrotation 
							JOINT Hand_R
							{
								OFFSET -22.2915 -0.000108084 0.0
								CHANNELS 6 Xposition Yposition Zposition Zrotation Xrotation Yrotation 
								End Site
								{
									OFFSET 0.0 0.0 0.0
								}
							}
						}
					}
				}
			}
		}
		JOINT UpperLeg_L
		{
			OFFSET -2.19248 -6.46944 0.0
			CHANNELS 6 Xposition Yposition Zposition Zrotation Xrotation Yrotation 
			JOINT LowerLeg_L
			{
				OFFSET 39.0811 0.0 -1.23785e-05
				CHANNELS 6 Xposition Yposition Zposition Zrotation Xrotation Yrotation 
				JOINT Foot_L
				{
					OFFSET 40.9854 0.0 -1.26872e-05
					CHANNELS 6 Xposition Yposition Zposition Zrotation Xrotation Yrotation 
					JOINT Toes_L
					{
						OFFSET 11.7543 0.0 0.0
						CHANNELS 6 Xposition Yposition Zposition Zrotation Xrotation Yrotation 
						End Site
						{
							OFFSET 0.0 0.0 0.0
						}
					}
				}
			}
		}
		JOINT UpperLeg_R
		{
			OFFSET -2.19251 6.46944 0.0
			CHANNELS 6 Xposition Yposition Zposition Zrotation Xrotation Yrotation 
			JOINT LowerLeg_R
			{
				OFFSET -39.0811 -0.00228153 -0.0401928
				CHANNELS 6 Xposition Yposition Zposition Zrotation Xrotation Yrotation 
				JOINT Foot_R
				{
					OFFSET -40.9854 0.0 0.0
					CHANNELS 6 Xposition Yposition Zposition Zrotation Xrotation Yrotation 
					JOINT Toes_R
					{
						OFFSET -11.7543 0.0 0.0
						CHANNELS 6 Xposition Yposition Zposition Zrotation Xrotation Yrotation 
						End Site
						{
							OFFSET 0.0 0.0 0.0
						}
					}
				}
			}
		}
	}
}
MOTION
Frames:	8
Frame Time:	0.0333333
0.000000 0.000000 0.000000 0.000000 0.000000 -0.000000 -1.120570 92.037900 -0.323038 88.711700 1.390750 2.782370 15.735700 0.000005 -0.000001 76.095300 85.174400 -71.776200 8.984550 -0.406207 -0.000000 1.714630 -2.545530 8.669810 16.377300 -0.000001 -0.000001 1.579390 -2.414550 1.080760 6.456720 -0.000001 -0.000000 -0.132969 -3.376850 15.695300 12.994200 -0.242716 4.980390 -84.528400 -11.058100 -63.461900 5.348090 -0.000007 -0.000001 -58.245900 -52.001500 -71.495600 24.328600 0.000019 0.000005 -1.319640 -2.601080 -26.912500 22.291600 -0.000001 0.000005 24.352400 5.506260 -6.788460 12.994500 -0.242716 -4.980390 90.296300 -0.799368 -69.659300 -5.348130 -0.000001 -0.000004 -56.202700 73.716900 9.831810 -24.328900 0.000322 -0.000009 26.119400 0.743705 -88.484300 -22.291500 -0.000108 -0.000004 35.610000 5.670920 -17.527400 -2.192480 -6.469440 -0.000000 -169.982000 -16.084500 -3.328830 39.081100 -0.000007 -0.000012 -0.166339 0.432433 21.039800 40.985400 -0.000006 -0.000013 -7.198540 -1.637560 -62.948000 11.754300 -0.000000 0.000003 -0.000116 -0.001168 -16.622200 -2.192510 6.469440 -0.000001 173.109000 23.849400 179.709000 -39.081100 -0.002282 -0.040193 -0.088349 0.259630 19.447400 -40.985400 0.000008 0.000006 -5.550200 0.228350 -63.661100 -11.754300 -0.000006 -0.000006 -0.002201 -0.031205 -17.842000
0.000000 0.000000 0.000000 0.000000 0.000000 -0.000000 -1.046660 92.024800 -0.283127 88.797700 1.224700 2.771010 15.735700 0.000005 -0.000001 75.348600 85.175300 -71.014100 8.984550 -0.406207 -0.000000 1.687100 -2.668770 8.701790 16.377300 -0.000001 -0.000001 1.643710 -2.300980 0.799138 6.456720 -0.000001 -0.000000 -0.059310 -3.307560 15.913200 12.994200 -0.242716 4.980390 -84.424600 -11.187000 -63.290600 5.348090 -0.000007 -0.000001 -57.457600 -53.288400 -74.437300 24.328600 0.000019 0.000005 -1.403590 -2.503330 -29.294200 22.291600 -0.000001 0.000005 24.190200 5.513900 -7.105380 12.994500 -0.242716 -4.980390 90.320000 -0.864433 -69.686200 -5.348130 -0.000001 -0.000004 -55.609800 73.795400 9.141430 -24.328900 0.000322 -0.000009 25.954200 0.760773 -88.438100 -22.291500 -0.000108 -0.000004 35.571600 5.671280 -17.585300 -2.192480 -6.469440 -0.000000 -170.124000 -16.125400 -3.306380 39.081100 -0.000007 -0.000012 -0.165989 0.429911 21.111800 40.985400 -0.000006 -0.000013 -7.184250 -1.798870 -63.057100 11.754300 -0.000000 0.000003 -0.000101 -0.001039 -16.617400 -2.192510 6.469440 -0.000001 172.966000 23.770300 179.630000 -39.081100 -0.002282 -0.040193 -0.089078 0.259831 19.576300 -40.985400 0.000008 0.000006 -5.591220 0.331459 -63.701600 -11.754300 -0.000006 -0.000006 -0.002222 -0.031463 -17.852500
0.000000 0.000000 0.000000 0.000000 0.000000 -0.000000 -0.978577 92.031800 -0.249891 88.837400 0.973762 2.754700 15.735700 0.000005 -0.000001 74.794100 85.183400 -70.435200 8.984550 -0.406207 -0.000000 1.651700 -2.757370 8.751250 16.377300 -0.000001 -0.000001 1.769210 -2.244450 0.521795 6.456720 -0.000001 -0.000000 -0.063774 -3.355680 16.127300 12.994200 -0.242716 4.980390 -84.341600 -11.296000 -63.168300 5.348090 -0.000007 -0.000001 -56.771100 -54.884500 -77.682000 24.328600 0.000019 0.000005 -1.191890 -1.947040 -31.488100 22.291600 -0.000001 0.000005 23.970700 5.516090 -7.196210 12.994500 -0.242716 -4.980390 90.339300 -0.915621 -69.662800 -5.348130 -0.000001 -0.000004 -55.219500 73.906400 8.687930 -24.328900 0.000322 -0.000009 25.905700 0.768280 -88.419300 -22.291500 -0.000108 -0.000004 35.540400 5.671050 -17.548300 -2.192480 -6.469440 -0.000000 -170.182000 -16.311800 -3.191950 39.081100 -0.000007 -0.000012 -0.165182 0.429500 21.036500 40.985400 -0.000006 -0.000013 -7.164800 -1.849640 -63.087100 11.754300 -0.000000 0.000003 -0.000129 -0.001278 -16.626300 -2.192510 6.469440 -0.000001 172.900000 23.559300 179.629000 -39.081100 -0.002282 -0.040193 -0.087966 0.257746 19.503100 -40.985400 0.000008 0.000006 -5.627740 0.392453 -63.649600 -11.754300 -0.000006 -0.000006 -0.002459 -0.034325 -17.968900
0.000000 0.000000 0.000000 0.000000 0.000000 -0.000000 -0.916112 92.033900 -0.221707 88.887800 0.697883 2.698350 15.735700 0.000005 -0.000001 74.157500 85.189400 -69.782300 8.984550 -0.406207 -0.000000 1.615990 -2.859420 8.784590 16.377300 -0.000001 -0.000001 1.861510 -2.178990 0.290709 6.456720 -0.000001 -0.000000 -0.065652 -3.392020 16.293400 12.994200 -0.242716 4.980390 -84.261200 -11.357900 -62.964600 5.348090 -0.000007 -0.000001 -56.614800 -56.608300 -81.524200 24.328600 0.000019 0.000005 -1.015950 -1.528960 -33.611800 22.291600 -0.000001 0.000005 23.789600 5.519310 -7.332540 12.994500 -0.242716 -4.980390 90.346400 -0.938265 -69.734900 -5.348130 -0.000001 -0.000004 -55.339900 73.871800 8.774850 -24.328900 0.000322 -0.000009 25.853800 0.787728 -88.375600 -22.291500 -0.000108 -0.000004 35.559400 5.671030 -17.545200 -2.192480 -6.469440 -0.000000 -170.280000 -16.436700 -3.138750 39.081100 -0.000007 -0.000012 -0.163690 0.426496 20.997100 40.985400 -0.000006 -0.000013 -7.166400 -2.027740 -63.145400 11.754300 -0.000000 0.000003 -0.000093 -0.000966 -16.614700 -2.192510 6.469440 -0.000001 172.832000 23.412200 179.535000 -39.081100 -0.002282 -0.040193 -0.088538 0.259427 19.498500 -40.985400 0.000008 0.000006 -5.650610 0.514433 -63.607500 -11.754300 -0.000006 -0.000006 -0.002338 -0.032873 -17.909800
0.000000 0.000000 0.000000 0.000000 0.000000 -0.000000 -0.857964 92.046200 -0.194805 88.914600 0.410174 2.623320 15.735700 0.000005 -0.000001 73.626800 85.222000 -69.226200 8.984550 -0.406207 -0.000000 1.532410 -2.931290 8.834410 16.377300 -0.000001 -0.000001 2.003690 -2.094980 0.011940 6.456720 -0.000001 -0.000000 -0.066872 -3.478190 16.510200 12.994200 -0.242716 4.980390 -84.135000 -11.469100 -62.678500 5.348090 -0.000007 -0.000001 -57.292000 -58.190300 -86.112100 24.328600 0.000019 0.000005 -0.881836 -1.223730 -35.780700 22.291600 -0.000001 0.000005 23.429700 5.520990 -7.404610 12.994500 -0.242716 -4.980390 90.358400 -0.972451 -69.767400 -5.348130 -0.000001 -0.000004 -55.687800 73.773200 9.172840 -24.328900 0.000322 -0.000009 25.920600 0.784364 -88.387300 -22.291500 -0.000108 -0.000004 35.497600 5.671490 -17.621600 -2.192480 -6.469440 -0.000000 -170.330000 -16.679500 -3.058020 39.081100 -0.000007 -0.000012 -0.162129 0.425061 20.878300 40.985400 -0.000006 -0.000013 -7.148280 -2.048410 -63.149200 11.754300 -0.000000 0.000003 -0.000119 -0.001190 -16.623000 -2.192510 6.469440 -0.000001 172.812000 23.238400 179.465000 -39.081100 -0.002282 -0.040193 -0.086948 0.256407 19.395200 -40.985400 0.000008 0.000006 -5.664410 0.627537 -63.522100 -11.754300 -0.000006 -0.000006 -0.002486 -0.034648 -17.982100
0.000000 0.000000 0.000000 0.000000 0.000000 -0.000000 -0.814224 92.048500 -0.185227 88.935500 0.152340 2.476660 15.735700 0.000005 -0.000001 73.273500 85.267300 -68.851100 8.984550 -0.406207 -0.000000 1.430940 -2.966850 8.875990 16.377300 -0.000001 -0.000001 2.172810 -1.985750 -0.193417 6.456720 -0.000001 -0.000000 -0.076308 -3.464290 16.665900 12.994200 -0.242716 4.980390 -83.964500 -11.610100 -62.283700 5.348090 -0.000007 -0.000001 -59.091600 -59.344800 -91.562500 24.328600 0.000019 0.000005 -0.958094 -1.216960 -38.209900 22.291600 -0.000001 0.000005 23.386100 5.529610 -7.778040 12.994500 -0.242716 -4.980390 90.346600 -0.942895 -69.813300 -5.348130 -0.000001 -0.000004 -55.962700 73.617000 9.589960 -24.328900 0.000322 -0.000009 25.863100 0.739318 -88.476000 -22.291500 -0.000108 -0.000004 35.314400 5.671630 -17.644200 -2.192480 -6.469440 -0.000000 -170.419000 -16.872100 -3.142580 39.081100 -0.000007 -0.000012 -0.161125 0.422477 20.876100 40.985400 -0.000006 -0.000013 -7.144520 -2.194680 -63.193300 11.754300 -0.000000 0.000003 -0.000107 -0.001090 -16.619300 -2.192510 6.469440 -0.000001 172.837000 23.067400 179.265000 -39.081100 -0.002282 -0.040193 -0.086516 0.255346 19.383500 -40.985400 0.000008 0.000006 -5.679350 0.702393 -63.480400 -11.754300 -0.000006 -0.000006 -0.002560 -0.035514 -18.017300
0.000000 0.000000 0.000000 0.000000 0.000000 -0.000000 -0.772605 92.051700 -0.150858 88.982900 -0.058561 2.415610 15.735700 0.000005 -0.000001 72.889200 85.304500 -68.473900 8.984550 -0.406207 -0.000000 1.342680 -3.008740 8.860140 16.377300 -0.000001 -0.000001 2.376850 -1.823250 -0.431423 6.456720 -0.000001 -0.000000 0.012914 -3.413650 16.872800 12.994200 -0.242716 4.980390 -83.832600 -11.676600 -61.901300 5.348090 -0.000007 -0.000001 -60.921100 -60.112200 -97.289100 24.328600 0.000019 0.000005 -1.474340 -1.732740 -40.398700 22.291600 -0.000001 0.000005 23.625200 5.542210 -8.344970 12.994500 -0.242716 -4.980390 90.357600 -0.976181 -69.878000 -5.348130 -0.000001 -0.000004 -56.279100 73.548500 9.908200 -24.328900 0.000322 -0.000009 25.651600 0.758975 -88.420700 -22.291500 -0.000108 -0.000004 35.406200 5.673060 -17.894200 -2.192480 -6.469440 -0.000000 -170.498000 -16.999700 -3.097210 39.081100 -0.000007 -0.000012 -0.159290 0.419084 20.811600 40.985400 -0.000006 -0.000013 -7.135870 -2.253180 -63.221600 11.754300 -0.000000 0.000003 -0.000115 -0.001156 -16.621800 -2.192510 6.469440 -0.000001 172.789000 22.960000 179.184000 -39.081100 -0.002282 -0.040193 -0.087464 0.258186 19.373400 -40.985400 0.000008 0.000006 -5.691400 0.795918 -63.455400 -11.754300 -0.000006 -0.000006 -0.002502 -0.034831 -17.989500
0.000000 0.000000 0.000000 0.000000 0.000000 -0.000000 -0.763393 92.042800 -0.102769 89.006900 -0.087614 2.518780 15.735700 0.000005 -0.000001 72.353500 85.286600 -67.964800 8.984550 -0.406207 -0.000000 1.353280 -3.101410 8.808590 16.377300 -0.000001 -0.000001 2.582990 -1.672060 -0.690486 6.456720 -0.000001 -0.000000 0.152450 -3.292290 17.130400 12.994200 -0.242716 4.980390 -83.722900 -11.751400 -61.627100 5.348090 -0.000007 -0.000001 -62.655700 -60.618500 -103.011000 24.328600 0.000019 0.000005 -1.605040 -1.758050 -42.410400 22.291600 -0.000001 0.000005 23.338500 5.549650 -8.689920 12.994500 -0.242716 -4.980390 90.338600 -0.926219 -69.915300 -5.348130 -0.000001 -0.000004 -56.285600 73.476600 9.963350 -24.328900 0.000322 -0.000009 25.803300 0.766205 -88.416400 -22.291500 -0.000108 -0.000004 35.339600 5.672360 -17.771300 -2.192480 -6.469440 -0.000000 -170.481000 -16.987100 -2.951750 39.081100 -0.000007 -0.000012 -0.161145 0.423660 20.825300 40.985400 -0.000006 -0.000013 -7.158550 -2.305870 -63.270200 11.754300 -0.000000 0.000003 -0.000098 -0.001012 -16.616400 -2.192510 6.469440 -0.000001 172.689000 22.956400 179.313000 -39.081100 -0.002282 -0.040193 -0.088733 0.261192 19.414700 -40.985400 0.000008 0.000006 -5.709210 0.842540 -63.499800 -11.754300 -0.000006 -0.000006 -0.002291 -0.032298 -17.886500
